<svg width="48" height="48" viewBox="0 0 48 48" fill="none" xmlns="http://www.w3.org/2000/svg">
<path d="M31.8124 27.1763L30.371 28.6176C30.0604 28.4298 29.6884 28.3851 29.348 28.4856L26.4782 25.6142C27.1161 24.636 27.1161 23.3639 26.4782 22.3857L29.348 19.5162C29.6884 19.6148 30.0604 19.5701 30.371 19.3842L31.8124 20.8254C31.9314 20.9445 32.1249 20.9445 32.2439 20.8254C32.3629 20.7064 32.3629 20.513 32.2439 20.394L30.8025 18.9527C31.0982 18.4618 31.0368 17.8109 30.6146 17.3869C30.1924 16.9647 29.5396 16.9015 29.0486 17.199L27.609 15.7559C27.49 15.6369 27.2965 15.6369 27.1775 15.7559C27.0585 15.8749 27.0585 16.0683 27.1775 16.1873L28.6189 17.6286C28.4329 17.9392 28.3864 18.3111 28.4869 18.6515L25.6152 21.5228C24.6369 20.885 23.3647 20.885 22.3864 21.5228L19.5165 18.6515C19.6151 18.3111 19.5705 17.9392 19.3845 17.6286L20.8259 16.1873C20.9449 16.0683 20.9449 15.8749 20.8259 15.7559C20.7069 15.6369 20.5134 15.6369 20.3944 15.7559L18.953 17.1972C18.462 16.9015 17.811 16.9628 17.3869 17.385C16.9647 17.8071 16.9015 18.4599 17.1991 18.9509L15.7558 20.3921C15.6367 20.5112 15.6367 20.7046 15.7558 20.8236C15.8748 20.9426 16.0682 20.9426 16.1873 20.8236L17.6287 19.3823C17.9393 19.5701 18.3113 19.6148 18.6517 19.5144L21.5215 22.3857C20.8817 23.3639 20.8817 24.6378 21.5215 25.616L18.6517 28.4837C18.3113 28.3851 17.9393 28.4298 17.6287 28.6157L16.1873 27.1745C16.0682 27.0555 15.8748 27.0555 15.7558 27.1745C15.6367 27.2935 15.6367 27.4869 15.7558 27.6059L17.1972 29.0472C16.9015 29.5382 16.9629 30.1891 17.3851 30.6131C17.8073 31.0371 18.4601 31.0985 18.9511 30.8009L20.3925 32.2422C20.5116 32.3612 20.705 32.3612 20.824 32.2422C20.9431 32.1231 20.9431 31.9297 20.824 31.8107L19.3826 30.3713C19.5705 30.0607 19.6151 29.6888 19.5147 29.3485L22.3845 26.4789C23.3628 27.1187 24.6369 27.1168 25.6152 26.4789L28.485 29.3485C28.3864 29.6888 28.4311 30.0607 28.6171 30.3713L27.1756 31.8126C27.0566 31.9316 27.0566 32.125 27.1756 32.244C27.2947 32.363 27.4881 32.363 27.6071 32.244L29.0486 30.8028C29.5396 31.0985 30.1906 31.0371 30.6146 30.6149C31.0368 30.1928 31.1001 29.54 30.8025 29.0491L32.2439 27.6078C32.3629 27.4888 32.3629 27.2954 32.2439 27.1763C32.1267 27.0573 31.9314 27.0573 31.8124 27.1763V27.1763Z" fill="black"/>
</svg>
